<svg id="visual" viewBox="0 0 900 600" width="900" height="600" xmlns="http://www.w3.org/2000/svg" xmlns:xlink="http://www.w3.org/1999/xlink" version="1.1"><rect x="0" y="0" width="900" height="600" fill="#ebf4f4"></rect><path d="M313 0L472 0L472 67L543 67L543 133L568 133L568 200L446 200L446 267L441 267L441 333L442 333L442 400L531 400L531 467L532 467L532 533L557 533L557 600L0 600L0 533L0 533L0 467L0 467L0 400L0 400L0 333L0 333L0 267L0 267L0 200L0 200L0 133L0 133L0 67L0 67L0 0L0 0Z" fill="#93dbd6"></path><path d="M336 0L372 0L372 67L241 67L241 133L314 133L314 200L365 200L365 267L391 267L391 333L269 333L269 400L289 400L289 467L445 467L445 533L287 533L287 600L0 600L0 533L0 533L0 467L0 467L0 400L0 400L0 333L0 333L0 267L0 267L0 200L0 200L0 133L0 133L0 67L0 67L0 0L0 0Z" fill="#78d3cb"></path><path d="M162 0L278 0L278 67L210 67L210 133L196 133L196 200L168 200L168 267L196 267L196 333L206 333L206 400L330 400L330 467L161 467L161 533L241 533L241 600L0 600L0 533L0 533L0 467L0 467L0 400L0 400L0 333L0 333L0 267L0 267L0 200L0 200L0 133L0 133L0 67L0 67L0 0L0 0Z" fill="#5acbc0"></path><path d="M155 0L79 0L79 67L178 67L178 133L159 133L159 200L123 200L123 267L97 267L97 333L119 333L119 400L143 400L143 467L215 467L215 533L195 533L195 600L0 600L0 533L0 533L0 467L0 467L0 400L0 400L0 333L0 333L0 267L0 267L0 200L0 200L0 133L0 133L0 67L0 67L0 0L0 0Z" fill="#33c2b5"></path></svg>