<svg id="visual" viewBox="0 0 900 600" width="900" height="600" xmlns="http://www.w3.org/2000/svg" xmlns:xlink="http://www.w3.org/1999/xlink" version="1.1"><path d="M0 85L82 43L164 61L245 67L327 55L409 43L491 73L573 61L655 55L736 43L818 37L900 55L900 0L818 0L736 0L655 0L573 0L491 0L409 0L327 0L245 0L164 0L82 0L0 0Z" fill="#93dbd6"></path><path d="M0 133L82 91L164 175L245 103L327 139L409 79L491 145L573 109L655 109L736 85L818 127L900 103L900 53L818 35L736 41L655 53L573 59L491 71L409 41L327 53L245 65L164 59L82 41L0 83Z" fill="#6acfc6"></path><path d="M0 277L82 301L164 373L245 265L327 199L409 253L491 349L573 373L655 271L736 187L818 199L900 187L900 101L818 125L736 83L655 107L573 107L491 143L409 77L327 137L245 101L164 173L82 89L0 131Z" fill="#33c2b5"></path><path d="M0 367L82 367L164 415L245 301L327 295L409 337L491 427L573 421L655 343L736 223L818 283L900 229L900 185L818 197L736 185L655 269L573 371L491 347L409 251L327 197L245 263L164 371L82 299L0 275Z" fill="#33c2b5"></path><path d="M0 541L82 517L164 505L245 535L327 493L409 541L491 529L573 529L655 535L736 493L818 481L900 475L900 227L818 281L736 221L655 341L573 419L491 425L409 335L327 293L245 299L164 413L82 365L0 365Z" fill="#6acfc6"></path><path d="M0 601L82 601L164 601L245 601L327 601L409 601L491 601L573 601L655 601L736 601L818 601L900 601L900 473L818 479L736 491L655 533L573 527L491 527L409 539L327 491L245 533L164 503L82 515L0 539Z" fill="#93dbd6"></path></svg>