<svg id="visual" viewBox="0 0 900 600" width="900" height="600" xmlns="http://www.w3.org/2000/svg" xmlns:xlink="http://www.w3.org/1999/xlink" version="1.1"><rect x="0" y="0" width="900" height="600" fill="#ebf4f4"></rect><path d="M0 364L100 364L100 374L200 374L200 236L300 236L300 366L400 366L400 306L500 306L500 278L600 278L600 317L700 317L700 347L800 347L800 296L900 296L900 383L900 0L900 0L800 0L800 0L700 0L700 0L600 0L600 0L500 0L500 0L400 0L400 0L300 0L300 0L200 0L200 0L100 0L100 0L0 0Z" fill="#93dbd6"></path><path d="M0 259L100 259L100 177L200 177L200 259L300 259L300 231L400 231L400 167L500 167L500 286L600 286L600 239L700 239L700 263L800 263L800 303L900 303L900 203L900 0L900 0L800 0L800 0L700 0L700 0L600 0L600 0L500 0L500 0L400 0L400 0L300 0L300 0L200 0L200 0L100 0L100 0L0 0Z" fill="#78d3cb"></path><path d="M0 152L100 152L100 166L200 166L200 158L300 158L300 193L400 193L400 163L500 163L500 150L600 150L600 164L700 164L700 222L800 222L800 110L900 110L900 168L900 0L900 0L800 0L800 0L700 0L700 0L600 0L600 0L500 0L500 0L400 0L400 0L300 0L300 0L200 0L200 0L100 0L100 0L0 0Z" fill="#5acbc0"></path><path d="M0 126L100 126L100 70L200 70L200 103L300 103L300 56L400 56L400 84L500 84L500 130L600 130L600 119L700 119L700 55L800 55L800 70L900 70L900 140L900 0L900 0L800 0L800 0L700 0L700 0L600 0L600 0L500 0L500 0L400 0L400 0L300 0L300 0L200 0L200 0L100 0L100 0L0 0Z" fill="#33c2b5"></path></svg>