<svg id="visual" viewBox="0 0 900 600" width="900" height="600" xmlns="http://www.w3.org/2000/svg" xmlns:xlink="http://www.w3.org/1999/xlink" version="1.1"><rect x="0" y="0" width="900" height="600" fill="#ebf4f4"></rect><path d="M0 189L129 216L257 158L386 227L514 167L643 153L771 158L900 177L900 0L771 0L643 0L514 0L386 0L257 0L129 0L0 0Z" fill="#93dbd6"></path><path d="M0 170L129 141L257 156L386 192L514 168L643 147L771 197L900 130L900 0L771 0L643 0L514 0L386 0L257 0L129 0L0 0Z" fill="#7fd5ce"></path><path d="M0 143L129 161L257 107L386 124L514 89L643 110L771 109L900 151L900 0L771 0L643 0L514 0L386 0L257 0L129 0L0 0Z" fill="#6acfc6"></path><path d="M0 93L129 70L257 68L386 83L514 74L643 70L771 117L900 73L900 0L771 0L643 0L514 0L386 0L257 0L129 0L0 0Z" fill="#52c9be"></path><path d="M0 67L129 60L257 35L386 27L514 30L643 48L771 58L900 54L900 0L771 0L643 0L514 0L386 0L257 0L129 0L0 0Z" fill="#33c2b5"></path></svg>