<svg id="visual" viewBox="0 0 900 600" width="900" height="600" xmlns="http://www.w3.org/2000/svg" xmlns:xlink="http://www.w3.org/1999/xlink" version="1.1"><path d="M0 67L82 67L82 103L164 103L164 43L245 43L245 97L327 97L327 55L409 55L409 61L491 61L491 79L573 79L573 43L655 43L655 103L736 103L736 79L818 79L818 97L900 97L900 73L900 0L900 0L818 0L818 0L736 0L736 0L655 0L655 0L573 0L573 0L491 0L491 0L409 0L409 0L327 0L327 0L245 0L245 0L164 0L164 0L82 0L82 0L0 0Z" fill="#93dbd6"></path><path d="M0 199L82 199L82 283L164 283L164 187L245 187L245 211L327 211L327 247L409 247L409 187L491 187L491 331L573 331L573 241L655 241L655 253L736 253L736 193L818 193L818 265L900 265L900 259L900 71L900 95L818 95L818 77L736 77L736 101L655 101L655 41L573 41L573 77L491 77L491 59L409 59L409 53L327 53L327 95L245 95L245 41L164 41L164 101L82 101L82 65L0 65Z" fill="#7fd5ce"></path><path d="M0 259L82 259L82 343L164 343L164 283L245 283L245 277L327 277L327 325L409 325L409 313L491 313L491 373L573 373L573 349L655 349L655 313L736 313L736 313L818 313L818 367L900 367L900 331L900 257L900 263L818 263L818 191L736 191L736 251L655 251L655 239L573 239L573 329L491 329L491 185L409 185L409 245L327 245L327 209L245 209L245 185L164 185L164 281L82 281L82 197L0 197Z" fill="#6acfc6"></path><path d="M0 529L82 529L82 457L164 457L164 517L245 517L245 493L327 493L327 439L409 439L409 505L491 505L491 499L573 499L573 445L655 445L655 457L736 457L736 457L818 457L818 535L900 535L900 499L900 329L900 365L818 365L818 311L736 311L736 311L655 311L655 347L573 347L573 371L491 371L491 311L409 311L409 323L327 323L327 275L245 275L245 281L164 281L164 341L82 341L82 257L0 257Z" fill="#52c9be"></path><path d="M0 601L82 601L82 601L164 601L164 601L245 601L245 601L327 601L327 601L409 601L409 601L491 601L491 601L573 601L573 601L655 601L655 601L736 601L736 601L818 601L818 601L900 601L900 601L900 497L900 533L818 533L818 455L736 455L736 455L655 455L655 443L573 443L573 497L491 497L491 503L409 503L409 437L327 437L327 491L245 491L245 515L164 515L164 455L82 455L82 527L0 527Z" fill="#33c2b5"></path></svg>